<?xml version="1.0" encoding="UTF-8" standalone="no"?>
<!-- Created with Inkscape (http://www.inkscape.org/) -->

<svg
   width="212.49879mm"
   height="210.8429mm"
   viewBox="0 0 212.49879 210.8429"
   version="1.1"
   id="svg5"
   inkscape:version="1.1.1 (3bf5ae0d25, 2021-09-20)"
   sodipodi:docname="Librewoof2.svg"
   xmlns:inkscape="http://www.inkscape.org/namespaces/inkscape"
   xmlns:sodipodi="http://sodipodi.sourceforge.net/DTD/sodipodi-0.dtd"
   xmlns="http://www.w3.org/2000/svg"
   xmlns:svg="http://www.w3.org/2000/svg">
  <sodipodi:namedview
     id="namedview7"
     pagecolor="#ffffff"
     bordercolor="#666666"
     borderopacity="1.0"
     inkscape:pageshadow="2"
     inkscape:pageopacity="0.0"
     inkscape:pagecheckerboard="0"
     inkscape:document-units="mm"
     showgrid="false"
     showguides="true"
     inkscape:guide-bbox="true"
     inkscape:snap-to-guides="true"
     inkscape:snap-nodes="true"
     inkscape:zoom="0.77593294"
     inkscape:cx="290.6179"
     inkscape:cy="367.29978"
     inkscape:window-width="1920"
     inkscape:window-height="1013"
     inkscape:window-x="0"
     inkscape:window-y="40"
     inkscape:window-maximized="1"
     inkscape:current-layer="layer2"
     fit-margin-top="0"
     fit-margin-left="0"
     fit-margin-right="0"
     fit-margin-bottom="0" />
  <defs
     id="defs2" />
  <g
     inkscape:groupmode="layer"
     id="layer5"
     inkscape:label="Layer 5"
     style="display:inline"
     transform="translate(1.042511,-9.6654892)" />
  <g
     inkscape:groupmode="layer"
     id="layer4"
     inkscape:label="Layer 4"
     style="display:none"
     transform="translate(1.042511,-9.6654892)" />
  <g
     inkscape:groupmode="layer"
     id="layer3"
     inkscape:label="Layer 3"
     style="display:none"
     transform="translate(1.042511,-9.6654892)" />
  <g
     inkscape:groupmode="layer"
     id="layer2"
     inkscape:label="Layer 2"
     style="display:inline"
     transform="translate(1.042511,-9.6654892)">
    <g
       id="g15730"
       inkscape:export-filename="/home/hamster/Projects/librewolf.png"
       inkscape:export-xdpi="96"
       inkscape:export-ydpi="96">
      <g
         id="g15713">
        <ellipse
           style="display:inline;fill:#003a7b;fill-opacity:1;stroke:none;stroke-width:3.38348;stroke-linecap:round;stroke-miterlimit:4;stroke-dasharray:none;stroke-opacity:1"
           id="path9810"
           cx="105.20689"
           cy="115.08694"
           rx="106.2494"
           ry="105.42145" />
        <path
           style="color:#000000;display:inline;fill:#ffffff;fill-opacity:1;stroke-width:2.84893;stroke-linecap:round;-inkscape-stroke:none"
           d="m 105.20966,28.264075 c -47.910148,0 -86.82565,38.915502 -86.82565,86.825655 0,47.91012 38.915502,86.8201 86.82565,86.8201 47.91013,0 86.8201,-38.90998 86.8201,-86.8201 0,-47.910153 -38.90997,-86.825655 -86.8201,-86.825655 z m 0,6.838548 c 44.21492,0 79.98155,35.77219 79.98155,79.987107 0,44.21491 -35.76663,79.98155 -79.98155,79.98155 -44.214912,0 -79.987102,-35.76664 -79.987102,-79.98155 0,-44.214917 35.77219,-79.987107 79.987102,-79.987107 z"
           id="path10201" />
        <path
           id="path44-9"
           style="display:inline;fill:#ffffff;fill-opacity:1;fill-rule:evenodd;stroke:none;stroke-width:0.753779;stroke-opacity:1"
           d="m 105.1612,56.614735 a 73.068006,73.068006 0 0 0 -73.068077,73.068075 73.068006,73.068006 0 0 0 0.226718,5.66071 73.068006,73.068006 0 0 0 0.499084,4.41816 73.068006,73.068006 0 0 1 -0.499084,-4.41816 c -0.10675,0.7611 -1.066797,7.3237 -3.274232,11.95446 -2.341649,4.91233 -11.683591,16.20185 -11.683591,16.20185 0,0 8.335494,1.15772 11.902956,0.15157 3.494517,-0.98551 8.468334,-5.27591 8.672887,-5.45314 a 73.068006,73.068006 0 0 0 0.03536,0.0781 c -0.102618,0.40369 -2.645182,10.35983 -5.014402,15.00347 -1.640188,3.21476 -6.305542,8.80243 -6.305542,8.80243 0,0 9.392115,-0.20142 13.579814,-2.0508 2.667168,-1.17792 6.791384,-5.51348 6.791384,-5.51348 l 0.422523,-0.0752 a 73.068006,73.068006 0 0 0 57.714222,28.30651 73.068006,73.068006 0 0 0 57.72453,-28.31975 l 0.5035,0.0883 c 0,0 4.12421,4.33557 6.79138,5.51349 4.18771,1.84935 13.57983,2.0508 13.57983,2.0508 0,0 -4.66536,-5.58767 -6.30556,-8.80243 -2.41577,-4.73487 -5.04372,-15.11655 -5.04826,-15.1345 a 73.068006,73.068006 0 0 0 0.002,-0.003 c 0.009,0.009 5.17644,4.50394 8.7406,5.50907 3.56747,1.00607 11.90296,-0.15156 11.90296,-0.15156 0,0 -9.34195,-11.28953 -11.6836,-16.20185 -2.34165,-4.91233 -3.31839,-12.2342 -3.31839,-12.2342 0,0 -0.0205,0.009 -0.0205,0.009 a 73.068006,73.068006 0 0 0 0.20022,-5.38836 73.068006,73.068006 0 0 0 -73.06809,-73.068189 z m 72.8119,78.998185 a 73.068006,73.068006 0 0 1 -0.46228,4.10163 73.068006,73.068006 0 0 0 0.46228,-4.10163 z m -0.80383,6.24813 a 73.068006,73.068006 0 0 1 -0.45197,2.39533 73.068006,73.068006 0 0 0 0.45197,-2.39533 z m -143.992587,0.11937 a 73.068006,73.068006 0 0 0 0.438721,2.32171 73.068006,73.068006 0 0 1 -0.438721,-2.32171 z m 143.004727,4.76707 a 73.068006,73.068006 0 0 1 -0.30328,1.13068 73.068006,73.068006 0 0 0 0.30328,-1.13068 z m -142.008028,0.11937 a 73.068006,73.068006 0 0 0 0.306223,1.13803 73.068006,73.068006 0 0 1 -0.306223,-1.13803 z m 139.871828,7.03281 a 73.068006,73.068006 0 0 1 -0.26794,0.76705 73.068006,73.068006 0 0 0 0.26794,-0.76705 z m -137.703241,0.18404 a 73.068006,73.068006 0 0 0 0.214952,0.61392 73.068006,73.068006 0 0 1 -0.214952,-0.61392 z m 131.053191,13.79624 a 73.068006,73.068006 0 0 1 -0.54031,0.85978 73.068006,73.068006 0 0 0 0.54031,-0.85978 z m -124.447312,0.0308 a 73.068006,73.068006 0 0 0 0.556502,0.8863 73.068006,73.068006 0 0 1 -0.556502,-0.8863 z" />
        <path
           style="fill:#a9a9a9;fill-opacity:1;stroke:none;stroke-width:1.09507px;stroke-linecap:butt;stroke-linejoin:miter;stroke-opacity:1"
           d="m 133.46247,90.060601 c 0,0 11.29811,-23.052476 19.65634,-30.86085 8.35821,-7.808375 28.42734,-15.03463 28.42734,-15.03463 0,0 0.60675,25.824241 -0.98987,37.96257 -1.59661,12.138329 -8.28208,34.422599 -8.28208,34.422599 z"
           id="path1370"
           sodipodi:nodetypes="czczcc" />
        <path
           style="fill:#a9a9a9;fill-opacity:1;stroke:none;stroke-width:1.09507px;stroke-linecap:butt;stroke-linejoin:miter;stroke-opacity:1"
           d="m 77.404341,90.060601 c 0,0 -11.298113,-23.052476 -19.656328,-30.86085 -8.358217,-7.808375 -28.427352,-15.03463 -28.427352,-15.03463 0,0 -0.606739,25.824241 0.98987,37.96257 1.596609,12.138329 8.282077,34.422599 8.282077,34.422599 z"
           id="path1370-6"
           sodipodi:nodetypes="czczcc" />
        <path
           style="fill:#ffffff;fill-opacity:1;fill-rule:evenodd;stroke:none;stroke-width:0.753779;stroke-opacity:1"
           d="M 162.88575,174.42954 105.20686,164.227 47.446993,174.44279 a 73.068006,73.068006 0 0 0 57.714227,28.3065 73.068006,73.068006 0 0 0 57.72453,-28.31975 z"
           id="path6077" />
        <path
           style="fill:#ffffff;fill-opacity:1;stroke:none;stroke-width:1.09507px;stroke-linecap:butt;stroke-linejoin:miter;stroke-opacity:1"
           d="m 145.85115,81.989507 c 0,0 7.55762,-11.57177 12.3359,-15.259532 3.64015,-2.809409 15.32676,-7.859015 15.32676,-7.859015 0,0 0.0158,13.916987 -0.70711,21.701454 -0.53963,5.797731 -4.54482,21.179976 -4.54482,21.179976 0,0 -6.29185,-10.078483 -10.0695,-13.524868 -3.77761,-3.446386 -12.34123,-6.238015 -12.34123,-6.238015 z"
           id="path1372"
           sodipodi:nodetypes="cscsczc" />
        <path
           style="fill:#ffffff;fill-opacity:1;stroke:none;stroke-width:1.09507px;stroke-linecap:butt;stroke-linejoin:miter;stroke-opacity:1"
           d="m 65.015668,81.989507 c 0,0 -7.557626,-11.57177 -12.335906,-15.259532 C 49.03961,63.920566 37.353005,58.87096 37.353005,58.87096 c 0,0 -0.01577,13.916987 0.707113,21.701454 0.539624,5.797731 4.544821,21.179976 4.544821,21.179976 0,0 6.291853,-10.078483 10.069503,-13.524868 3.777611,-3.446386 12.341226,-6.238015 12.341226,-6.238015 z"
           id="path1372-7"
           sodipodi:nodetypes="cscsczc" />
        <path
           style="fill:#a9a9a9;fill-opacity:1;fill-rule:evenodd;stroke:none;stroke-width:0.753779;stroke-opacity:1"
           d="m 105.16122,56.614625 a 73.068006,73.068006 0 0 0 -73.068077,73.068075 73.068006,73.068006 0 0 0 0.226718,5.66071 c 0.0068,-0.0464 0.04416,-0.27976 0.04416,-0.27976 0,0 16.824919,6.24392 26.542772,5.1734 9.717853,-1.07051 18.883529,-8.07723 28.971948,-12.65968 5.312686,-2.41316 17.328099,-2.48658 17.328099,-2.48658 0,0 12.01542,0.0735 17.32811,2.48658 10.08841,4.58245 19.25409,11.58917 28.97195,12.65968 9.69976,1.06852 26.45976,-5.14289 26.52215,-5.16605 a 73.068006,73.068006 0 0 0 0.20022,-5.38833 73.068006,73.068006 0 0 0 -73.06807,-73.068073 z"
           id="path44" />
        <g
           id="g15654"
           transform="matrix(1.453637,0,0,1.453637,-47.944734,-55.532197)">
          <path
             style="color:#000000;fill:#000000;stroke:none;stroke-width:2.84893;stroke-linecap:round;stroke-miterlimit:4;stroke-dasharray:none"
             d="m 104.96796,129.98098 a 1.0897165,1.0897165 0 0 0 -0.7345,0.76788 1.0897165,1.0897165 0 0 0 -0.089,0.0555 c 0,0 -0.31216,1.36979 -1.19633,2.78215 -0.88418,1.41236 -2.21514,2.74327 -4.384687,2.91571 -2.206982,0.1755 -3.707748,-0.98997 -4.790881,-2.32034 -1.08313,-1.33034 -1.585832,-2.70982 -1.585832,-2.70982 a 1.0897165,1.0897165 0 0 0 -1.396644,-0.66215 1.0897165,1.0897165 0 0 0 -0.65659,1.39664 c 0,0 0.60427,1.6999 1.947513,3.34971 1.343245,1.64985 3.582845,3.36021 6.654929,3.11602 3.006652,-0.23902 4.960382,-2.17818 6.059542,-3.93394 0.30632,-0.48934 0.21017,-0.51757 0.41176,-0.96266 0.20159,0.44509 0.10544,0.47332 0.41176,0.96266 1.09916,1.75576 3.04733,3.695 6.05398,3.93394 3.07209,0.24416 5.31725,-1.46617 6.66049,-3.11602 1.34324,-1.64981 1.94753,-3.34971 1.94753,-3.34971 a 1.0897165,1.0897165 0 0 0 -0.65659,-1.39664 1.0897165,1.0897165 0 0 0 -1.39667,0.66215 c 0,0 -0.50269,1.37948 -1.58582,2.70982 -1.08314,1.33037 -2.58946,2.49572 -4.79644,2.32034 -2.16955,-0.17236 -3.49495,-1.50335 -4.37912,-2.91571 -0.88418,-1.41236 -1.19633,-2.78215 -1.19633,-2.78215 a 1.0897165,1.0897165 0 0 0 -0.0168,-0.0114 1.0897165,1.0897165 0 0 0 -0.80683,-0.8124 1.0897165,1.0897165 0 0 0 -0.23925,0.15014 1.0897165,1.0897165 0 0 0 -0.23925,-0.15014 z"
             id="path3799-6" />
          <ellipse
             style="fill:#010101;fill-opacity:1;stroke:none;stroke-width:0.753779;stroke-opacity:1"
             id="path1396"
             cx="132.56786"
             cy="116.0434"
             rx="6.2684946"
             ry="7.0957742" />
          <path
             id="path1511"
             style="fill:#020202;fill-opacity:1;stroke:none;stroke-width:0.70635px;stroke-linecap:butt;stroke-linejoin:miter;stroke-opacity:1"
             d="m 105.20686,119.83938 c 0,0 -6.92631,-0.0444 -6.754576,4.94669 0.100852,2.92856 6.754576,6.2599 6.754576,6.2599 0,0 6.65372,-3.33134 6.75457,-6.2599 0.17173,-4.99125 -6.75457,-4.94669 -6.75457,-4.94669 z" />
          <ellipse
             style="fill:#010101;fill-opacity:1;stroke:none;stroke-width:0.753779;stroke-opacity:1"
             id="path1396-5"
             cx="-77.845764"
             cy="116.0434"
             rx="6.2684946"
             ry="7.0957742"
             transform="scale(-1,1)" />
        </g>
      </g>
    </g>
  </g>
</svg>
