<?xml version="1.0" encoding="UTF-8"?>
<!-- Created with Inkscape (http://www.inkscape.org/) -->
<svg version="1.1" viewBox="0 0 48 48" xml:space="preserve" xmlns="http://www.w3.org/2000/svg">
  <circle cx="24" cy="24" r="24" fill="#003a7b" />
  <circle cx="24" cy="24" r="18.8" fill="none" stroke="#fff" stroke-width="1.5" />
  <circle cx="24" cy="27.2" r="16.5" fill="#fff" />
  <g>
    <path d="m30.3 18.3s2.53-5.17 4.4-6.92 6.37-3.37 6.37-3.37 0.136 5.79-0.222 8.51-1.86 7.71-1.86 7.71z"
      fill="#a9a9a9" />
    <path
      d="m33.1 16.4s1.69-2.59 2.76-3.42c0.816-0.63 3.43-1.76 3.43-1.76s0.0035 3.12-0.158 4.86c-0.121 1.3-1.02 4.75-1.02 4.75l2.29 7.62s0.219 1.64 0.743 2.74c0.525 1.1 2.62 3.63 2.62 3.63s-1.87 0.259-2.67 0.034c-0.456-0.129-1.03-0.512-1.44-0.817l-0.302 0.396c0.22 0.775 0.575 1.92 0.91 2.58 0.368 0.72 1.41 1.97 1.41 1.97s-2.1-0.0452-3.04-0.46c-0.598-0.264-1.52-1.24-1.52-1.24z"
      fill="#fff" />
  </g>
  <g transform="matrix(-1,0,0,1,48,0)">
    <path d="m30.3 18.3s2.53-5.17 4.4-6.92 6.37-3.37 6.37-3.37 0.136 5.79-0.222 8.51-1.86 7.71-1.86 7.71z"
      fill="#a9a9a9" />
    <path
      d="m33.1 16.4s1.69-2.59 2.76-3.42c0.816-0.63 3.43-1.76 3.43-1.76s0.0035 3.12-0.158 4.86c-0.121 1.3-1.02 4.75-1.02 4.75l2.29 7.62s0.219 1.64 0.743 2.74c0.525 1.1 2.62 3.63 2.62 3.63s-1.87 0.259-2.67 0.034c-0.456-0.129-1.03-0.512-1.44-0.817l-0.302 0.396c0.22 0.775 0.575 1.92 0.91 2.58 0.368 0.72 1.41 1.97 1.41 1.97s-2.1-0.0452-3.04-0.46c-0.598-0.264-1.52-1.24-1.52-1.24z"
      fill="#fff" />
  </g>
  <path
    d="m24 10.7c4.59 0 8.97 1.91 12.1 5.27 3.13 3.36 4.69 7.87 4.36 12.4 0 0-3.82 1.41-6 1.17-2.19-0.24-4.26-1.83-6.54-2.86-1.2-0.579-3.92-0.563-3.92-0.562 0-1e-6 -2.72-0.0165-3.92 0.562-2.28 1.03-4.35 2.62-6.54 2.86-2.18 0.24-6-1.17-6-1.17-0.33-4.53 1.23-9.04 4.36-12.4 3.13-3.36 7.51-5.27 12.1-5.27z"
    fill="#a9a9a9" />
  <ellipse cx="15.1" cy="23.5" rx="2" ry="2.3" />
  <ellipse cx="32.9" cy="23.5" rx="2" ry="2.3" />
  <path d="m19.3 28.7c1.5 3 4.2 2.2 4.7-0.699 0.5 2.9 3.2 3.7 4.7 0.699" fill="none" stroke="#000"
    stroke-linecap="round" stroke-width=".65" />
  <path d="m24 24.8s2.2-3.89e-4 2.2 1.6c0 1-2.2 2-2.2 2s-2.2-1-2.2-2c0-1.6 2.2-1.6 2.2-1.6z" />
</svg>
